<svg width="494" height="592" viewBox="0 0 494 592" fill="none" xmlns="http://www.w3.org/2000/svg">
<path d="M247 592C383.399 592 494 478.392 494 338.286C357.602 338.286 247 451.894 247 592ZM71.3555 260.761C71.3555 299.665 102.093 331.237 139.966 331.237C154.511 331.237 167.686 326.729 178.937 318.833L178.389 324.189C178.389 363.094 209.125 394.666 247 394.666C284.873 394.666 315.612 363.094 315.612 324.189L315.061 318.833C326.04 326.729 339.487 331.237 354.033 331.237C391.905 331.237 422.644 299.665 422.644 260.761C422.644 232.571 406.451 208.61 383.399 197.332C406.451 186.057 422.644 162.096 422.644 133.905C422.644 95.0021 391.905 63.4286 354.033 63.4286C339.487 63.4286 326.314 67.9391 315.061 75.8324L315.612 70.4763C315.612 31.5735 284.873 0 247 0C209.125 0 178.389 31.5735 178.389 70.4763L178.937 75.8324C167.96 67.9391 154.511 63.4286 139.966 63.4286C102.093 63.4286 71.3555 95.0021 71.3555 133.905C71.3555 162.096 87.5478 186.057 110.602 197.332C87.5478 208.61 71.3555 232.571 71.3555 260.761ZM247 126.857C284.873 126.857 315.612 158.43 315.612 197.332C315.612 236.237 284.873 267.809 247 267.809C209.125 267.809 178.389 236.237 178.389 197.332C178.389 158.43 209.125 126.857 247 126.857ZM0 338.286C0 478.392 110.602 592 247 592C247 451.894 136.399 338.286 0 338.286Z" fill="#0D8479"/>
</svg>
