<svg width="606" height="592" viewBox="0 0 606 592" fill="none" xmlns="http://www.w3.org/2000/svg">
<path d="M535.76 110.488L496.92 70.6444L447.613 121.508L486.453 161.351L535.76 110.488ZM330.546 0H275.456V83.3604H330.546V0ZM523.365 337.68H606V281.166H523.365V337.68ZM220.363 456.079V592H385.636V456.079C434.943 426.692 468.272 372.153 468.272 309.423C468.272 215.889 394.174 139.876 303.001 139.876C211.825 139.876 137.727 215.889 137.727 309.423C137.727 372.153 171.056 426.692 220.363 456.079ZM82.6365 337.68V281.166H0V337.68H82.6365ZM158.661 121.226L109.356 70.3618L70.5165 110.205L120.098 160.786L158.661 121.226Z" fill="#0D8479"/>
</svg>
