<svg width="550" height="550" viewBox="0 0 550 550" fill="none" xmlns="http://www.w3.org/2000/svg">
<path d="M469.426 80.5752L430.65 119.35C470.25 159.224 495.001 214.226 495.001 275C495.001 396.55 396.55 495.001 275 495.001C153.45 495.001 55.0002 396.55 55.0002 275C55.0002 162.801 138.875 70.4002 247.5 56.9251V112.475C169.399 125.675 110 193.325 110 275C110 366.026 183.975 440.001 275 440.001C366.026 440.001 440.001 366.026 440.001 275C440.001 229.351 421.575 188.1 391.6 158.4L352.824 197.176C372.624 217.251 384.999 244.751 384.999 275C384.999 335.776 335.776 385.002 275 385.002C214.224 385.002 165.001 335.776 165.001 275C165.001 223.849 200.201 181.225 247.5 168.85V227.7C231 237.326 220.001 254.651 220.001 275C220.001 305.25 244.751 330 275 330C305.25 330 330 305.25 330 275C330 254.651 319.001 237.051 302.5 227.7V0H275C123.2 0 0 123.2 0 275C0 426.799 123.2 550 275 550C426.799 550 550 426.799 550 275C550 199.099 519.201 130.351 469.426 80.5752Z" fill="#0D8479"/>
</svg>
