<svg width="57" height="56" viewBox="0 0 57 56" fill="none" xmlns="http://www.w3.org/2000/svg">
<path d="M28.8 4.80688C19.8255 4.80688 12.525 12.1074 12.525 21.0819C12.525 33.2881 28.8 51.3069 28.8 51.3069C28.8 51.3069 45.075 33.2881 45.075 21.0819C45.075 12.1074 37.7745 4.80688 28.8 4.80688ZM28.8 9.45688C31.3575 9.45688 33.45 11.5494 33.45 14.1069C33.45 16.6876 31.3575 18.7569 28.8 18.7569C26.2425 18.7569 24.15 16.6876 24.15 14.1069C24.15 11.5494 26.2425 9.45688 28.8 9.45688ZM28.8 32.7069C24.9173 32.7069 21.4995 30.7306 19.5 27.7081C19.5465 24.6391 25.7078 22.9419 28.8 22.9419C31.8923 22.9419 38.0535 24.6391 38.1 27.7081C36.1005 30.7306 32.6828 32.7069 28.8 32.7069Z" fill="#0D8479"/>
</svg>
