<svg width="46" height="49" viewBox="0 0 46 49" fill="none" xmlns="http://www.w3.org/2000/svg">
<path d="M36.0784 3.80054H7.21569C5.23138 3.80054 3.60785 5.51078 3.60785 7.60108V41.806L10.8235 34.2049H36.0784C38.0627 34.2049 39.6863 32.4947 39.6863 30.4044V7.60108C39.6863 5.51078 38.0627 3.80054 36.0784 3.80054Z" fill="#0D8479" fill-opacity="0.87"/>
<g clip-path="url(#clip0)">
<path d="M20.7451 22.3281H38.7843C40.0245 22.3281 41.0392 23.397 41.0392 24.7035V46.0815L36.5294 41.3309H20.7451C19.5049 41.3309 18.4902 40.262 18.4902 38.9555V24.7035C18.4902 23.397 19.5049 22.3281 20.7451 22.3281Z" fill="#0D8479"/>
</g>
<defs>
<clipPath id="clip0">
<rect width="27.0588" height="28.5041" fill="white" transform="matrix(-1 0 0 1 46 19.9529)"/>
</clipPath>
</defs>
</svg>
