<svg width="57" height="57" viewBox="0 0 57 57" fill="none" xmlns="http://www.w3.org/2000/svg">
<circle cx="29.2" cy="28.2366" r="26.493" fill="#0D8479"/>
<path d="M28.6 0.699951C13.1992 0.699951 0.700001 13.1992 0.700001 28.6C0.700001 44.0008 13.1992 56.5 28.6 56.5C44.0008 56.5 56.5 44.0008 56.5 28.6C56.5 13.1992 44.0008 0.699951 28.6 0.699951ZM28.6 9.06995C33.2314 9.06995 36.97 12.8086 36.97 17.44C36.97 22.0714 33.2314 25.81 28.6 25.81C23.9686 25.81 20.23 22.0714 20.23 17.44C20.23 12.8086 23.9686 9.06995 28.6 9.06995ZM28.6 48.688C21.625 48.688 15.4591 45.1168 11.86 39.7042C11.9437 34.1521 23.02 31.111 28.6 31.111C34.1521 31.111 45.2563 34.1521 45.34 39.7042C41.7409 45.1168 35.575 48.688 28.6 48.688Z" fill="white"/>
</svg>
