<svg width="36" height="36" viewBox="0 0 36 36" fill="none" xmlns="http://www.w3.org/2000/svg">
<path d="M31.5 7.5L18 1.5L4.5 7.5V16.5C4.5 24.825 10.26 32.61 18 34.5C21.45 33.66 24.495 31.65 26.82 28.935L22.14 24.255C19.23 26.19 15.27 25.86 12.705 23.295C9.78 20.37 9.78 15.615 12.705 12.69C15.63 9.765 20.385 9.765 23.31 12.69C25.875 15.255 26.19 19.215 24.27 22.125L28.62 26.475C30.435 23.535 31.5 20.07 31.5 16.5V7.5Z" fill="#0D8479"/>
<path d="M18 22.5C20.4853 22.5 22.5 20.4853 22.5 18C22.5 15.5147 20.4853 13.5 18 13.5C15.5147 13.5 13.5 15.5147 13.5 18C13.5 20.4853 15.5147 22.5 18 22.5Z" fill="#0D8479"/>
</svg>
