<svg width="24" height="34" viewBox="0 0 24 34" fill="none" xmlns="http://www.w3.org/2000/svg">
<circle cx="12" cy="13" r="10" fill="white"/>
<path d="M12 0.333496C5.56668 0.333496 0.333344 5.56683 0.333344 12.0002C0.333344 20.7502 12 33.6668 12 33.6668C12 33.6668 23.6667 20.7502 23.6667 12.0002C23.6667 5.56683 18.4333 0.333496 12 0.333496ZM12 3.66683C13.8333 3.66683 15.3333 5.16683 15.3333 7.00016C15.3333 8.85016 13.8333 10.3335 12 10.3335C10.1667 10.3335 8.66668 8.85016 8.66668 7.00016C8.66668 5.16683 10.1667 3.66683 12 3.66683ZM12 20.3335C9.21668 20.3335 6.76668 18.9168 5.33334 16.7502C5.36668 14.5502 9.78334 13.3335 12 13.3335C14.2167 13.3335 18.6333 14.5502 18.6667 16.7502C17.2333 18.9168 14.7833 20.3335 12 20.3335Z" fill="#0D8479"/>
</svg>
