<svg width="280" height="194" viewBox="0 0 280 194" fill="none" xmlns="http://www.w3.org/2000/svg">
<rect width="280" height="193.926" fill="#EEEEEE"/>
<circle cx="140" cy="96.4444" r="82.1111" stroke="#CCCCCC" stroke-width="10"/>
<path d="M140 113.037C149.163 113.037 156.592 105.608 156.592 96.4446C156.592 87.2808 149.163 79.8521 140 79.8521C130.836 79.8521 123.407 87.2808 123.407 96.4446C123.407 105.608 130.836 113.037 140 113.037Z" fill="#CCCCCC"/>
<path d="M124.445 44.5927L114.956 54.963H98.5191C92.8153 54.963 88.1487 59.6297 88.1487 65.3334V127.556C88.1487 133.259 92.8153 137.926 98.5191 137.926H181.482C187.186 137.926 191.852 133.259 191.852 127.556V65.3334C191.852 59.6297 187.186 54.963 181.482 54.963H165.045L155.556 44.5927H124.445ZM140.001 122.37C125.689 122.37 114.075 110.756 114.075 96.4445C114.075 82.1334 125.689 70.5186 140.001 70.5186C154.312 70.5186 165.926 82.1334 165.926 96.4445C165.926 110.756 154.312 122.37 140.001 122.37Z" fill="#CCCCCC"/>
<line x1="84.4242" y1="34.8349" x2="201.724" y2="152.135" stroke="#CCCCCC" stroke-width="10"/>
</svg>
