<svg width="600" height="145" viewBox="0 0 600 145" fill="none" xmlns="http://www.w3.org/2000/svg">
<path d="M76.9688 31.3271L85.7638 60.285V61.1966H86.7638H113.52C118.374 61.1966 120.39 67.4028 116.425 70.267C116.424 70.2675 116.423 70.268 116.422 70.2685L94.5402 85.8987L93.9522 86.3186L94.1663 87.0087L102.764 114.727L102.765 114.728C104.217 119.385 98.8065 123.147 94.948 120.191L94.9456 120.189L72.7589 103.293L72.1541 102.833L71.5486 103.292L49.3618 120.128L49.3581 120.131C45.4995 123.087 40.0892 119.325 41.5412 114.668L41.5417 114.667L50.1398 86.9485L50.3538 86.2585L49.7659 85.8385L27.8798 70.2056L27.8769 70.2035C23.9279 67.4042 25.9212 61.1364 30.7859 61.1364H57.5423H58.2822L58.4986 60.4289L67.3973 31.3276L67.3973 31.3276L67.4002 31.3179C68.7969 26.5792 75.5074 26.5425 76.9685 31.3263C76.9686 31.3266 76.9687 31.3269 76.9688 31.3271Z" stroke="#696969" stroke-width="2"/>
<path d="M532.665 31.3271L541.46 60.285V61.1966H542.46H569.216C574.07 61.1966 576.087 67.4028 572.121 70.267C572.12 70.2675 572.119 70.268 572.119 70.2685L550.236 85.8987L549.648 86.3186L549.862 87.0087L558.461 114.727L558.461 114.728C559.913 119.385 554.503 123.147 550.644 120.191L550.642 120.189L528.455 103.293L527.85 102.833L527.245 103.292L505.058 120.128L505.054 120.131C501.196 123.087 495.785 119.325 497.237 114.668L497.238 114.667L505.836 86.9485L506.05 86.2585L505.462 85.8385L483.576 70.2056L483.573 70.2035C479.624 67.4042 481.617 61.1364 486.482 61.1364H513.238H513.978L514.195 60.4289L523.093 31.3276L523.094 31.3276L523.096 31.3179C524.493 26.5792 531.204 26.5425 532.665 31.3263C532.665 31.3266 532.665 31.3269 532.665 31.3271Z" stroke="#696969" stroke-width="2"/>
<path d="M190.893 31.3271L199.688 60.285V61.1966H200.688H227.444C232.298 61.1966 234.314 67.4028 230.349 70.267C230.348 70.2675 230.347 70.268 230.346 70.2685L208.464 85.8987L207.876 86.3186L208.09 87.0087L216.688 114.727L216.689 114.728C218.141 119.385 212.731 123.147 208.872 120.191L208.87 120.189L186.683 103.293L186.078 102.833L185.473 103.292L163.286 120.128L163.282 120.131C159.424 123.087 154.013 119.325 155.465 114.668L155.466 114.667L164.064 86.9485L164.278 86.2585L163.69 85.8385L141.804 70.2056L141.801 70.2035C137.852 67.4042 139.845 61.1364 144.71 61.1364H171.466H172.206L172.423 60.4289L181.321 31.3276L181.321 31.3276L181.324 31.3179C182.721 26.5792 189.431 26.5425 190.893 31.3263C190.893 31.3266 190.893 31.3269 190.893 31.3271Z" stroke="#696969" stroke-width="2"/>
<path d="M418.741 31.3271L427.536 60.285V61.1966H428.536H455.292C460.146 61.1966 462.163 67.4028 458.197 70.267C458.196 70.2675 458.195 70.268 458.194 70.2685L436.312 85.8987L435.724 86.3186L435.938 87.0087L444.537 114.727L444.537 114.728C445.989 119.385 440.579 123.147 436.72 120.191L436.718 120.189L414.531 103.293L413.926 102.833L413.321 103.292L391.134 120.128L391.13 120.131C387.272 123.087 381.861 119.325 383.313 114.668L383.314 114.667L391.912 86.9485L392.126 86.2585L391.538 85.8385L369.652 70.2056L369.649 70.2035C365.7 67.4042 367.693 61.1364 372.558 61.1364H399.314H400.054L400.271 60.4289L409.169 31.3276L409.169 31.3276L409.172 31.3179C410.569 26.5792 417.28 26.5425 418.741 31.3263C418.741 31.3266 418.741 31.3269 418.741 31.3271Z" stroke="#696969" stroke-width="2"/>
<path d="M304.817 31.3271L313.612 60.285V61.1966H314.612H341.368C346.222 61.1966 348.238 67.4028 344.273 70.267C344.272 70.2675 344.271 70.268 344.27 70.2685L322.388 85.8987L321.8 86.3186L322.014 87.0087L330.613 114.727L330.613 114.728C332.065 119.385 326.655 123.147 322.796 120.191L322.794 120.189L300.607 103.293L300.002 102.833L299.397 103.292L277.21 120.128L277.206 120.131C273.348 123.087 267.937 119.325 269.389 114.668L269.39 114.667L277.988 86.9485L278.202 86.2585L277.614 85.8385L255.728 70.2056L255.725 70.2035C251.776 67.4042 253.769 61.1364 258.634 61.1364H285.39H286.13L286.347 60.4289L295.245 31.3276L295.245 31.3276L295.248 31.3179C296.645 26.5792 303.355 26.5425 304.817 31.3263C304.817 31.3266 304.817 31.3269 304.817 31.3271Z" stroke="#696969" stroke-width="2"/>
</svg>
