<svg width="96" height="97" viewBox="0 0 96 97" fill="none" xmlns="http://www.w3.org/2000/svg">
<path d="M52.9688 5.32714L61.7638 34.285V35.1966H62.7638H89.5201C94.3741 35.1966 96.3904 41.4028 92.4245 44.267C92.4238 44.2675 92.4231 44.268 92.4224 44.2685L70.5402 59.8987L69.9522 60.3186L70.1663 61.0087L78.7644 88.727L78.7648 88.7284C80.2168 93.3848 74.8065 97.1473 70.948 94.1908L70.9456 94.189L48.7589 77.2934L48.1541 76.8328L47.5486 77.2923L25.3618 94.1278L25.3581 94.1306C21.4995 97.0872 16.0892 93.3247 17.5412 88.6683L17.5417 88.6669L26.1398 60.9485L26.3538 60.2585L25.7659 59.8385L3.87983 44.2056L3.8769 44.2035C-0.0721489 41.4042 1.92123 35.1364 6.78593 35.1364H33.5423H34.2822L34.4986 34.4289L43.3973 5.3276L43.3973 5.32761L43.4002 5.31789C44.7969 0.579205 51.5074 0.5425 52.9685 5.32628C52.9686 5.32656 52.9687 5.32685 52.9688 5.32714Z" fill="#0D8479" stroke="#0D8479" stroke-width="2"/>
</svg>
