<svg width="96" height="97" viewBox="0 0 96 97" fill="none" xmlns="http://www.w3.org/2000/svg">
<path d="M52.8928 5.32714L61.6879 34.285V35.1966H62.6879H89.4442C94.2982 35.1966 96.3144 41.4028 92.3486 44.267C92.3479 44.2675 92.3471 44.268 92.3464 44.2685L70.4642 59.8987L69.8763 60.3186L70.0904 61.0087L78.6885 88.727L78.6889 88.7284C80.1409 93.3848 74.7306 97.1473 70.872 94.1908L70.8697 94.189L48.6829 77.2934L48.0782 76.8328L47.4726 77.2923L25.2859 94.1278L25.2822 94.1306C21.4236 97.0872 16.0133 93.3247 17.4653 88.6683L17.4657 88.6669L26.0638 60.9485L26.2779 60.2585L25.69 59.8385L3.8039 44.2056L3.80096 44.2035C-0.148084 41.4042 1.8453 35.1364 6.71 35.1364H33.4663H34.2063L34.4226 34.4289L43.3214 5.3276L43.3214 5.32761L43.3243 5.31789C44.7209 0.579205 51.4314 0.5425 52.8926 5.32628C52.8926 5.32656 52.8927 5.32685 52.8928 5.32714Z" stroke="#696969" stroke-width="2"/>
</svg>
