<svg width="20" height="20" viewBox="0 0 20 20" fill="none" xmlns="http://www.w3.org/2000/svg">
<path d="M0.833252 17.5H4.16658V7.49999H0.833252V17.5ZM19.1666 8.33333C19.1666 7.41666 18.4166 6.66666 17.4999 6.66666H12.2416L13.0333 2.85833L13.0583 2.59166C13.0583 2.24999 12.9166 1.93333 12.6916 1.70833L11.8083 0.833328L6.32492 6.325C6.01658 6.62499 5.83325 7.04166 5.83325 7.49999V15.8333C5.83325 16.75 6.58325 17.5 7.49992 17.5H14.9999C15.6916 17.5 16.2833 17.0833 16.5333 16.4833L19.0499 10.6083C19.1249 10.4167 19.1666 10.2167 19.1666 9.99999V8.33333Z" fill="#0D8479"/>
</svg>
