<svg width="20" height="20" viewBox="0 0 20 20" fill="none" xmlns="http://www.w3.org/2000/svg">
<path d="M12.5004 2.5H5.00041C4.30874 2.5 3.71707 2.91667 3.46707 3.51667L0.950407 9.39167C0.875407 9.58333 0.83374 9.78333 0.83374 10V11.6667C0.83374 12.5833 1.58374 13.3333 2.50041 13.3333H7.75874L6.96707 17.1417L6.94207 17.4083C6.94207 17.75 7.08374 18.0667 7.30874 18.2917L8.19207 19.1667L13.6837 13.675C13.9837 13.375 14.1671 12.9583 14.1671 12.5V4.16667C14.1671 3.25 13.4171 2.5 12.5004 2.5ZM15.8337 2.5V12.5H19.1671V2.5H15.8337Z" fill="#C01010"/>
</svg>
