<svg width="32" height="32" viewBox="0 0 32 32" fill="none" xmlns="http://www.w3.org/2000/svg">
<path d="M23.8555 8.14446L22.2888 9.71112C23.8888 11.3222 24.8888 13.5445 24.8888 16C24.8888 20.9111 20.911 24.8889 15.9999 24.8889C11.0888 24.8889 7.11102 20.9111 7.11102 16C7.11102 11.4667 10.4999 7.73335 14.8888 7.1889V9.43335C11.7332 9.96668 9.33324 12.7 9.33324 16C9.33324 19.6778 12.3221 22.6667 15.9999 22.6667C19.6777 22.6667 22.6666 19.6778 22.6666 16C22.6666 14.1556 21.9221 12.4889 20.711 11.2889L19.1443 12.8556C19.9443 13.6667 20.4443 14.7778 20.4443 16C20.4443 18.4556 18.4555 20.4445 15.9999 20.4445C13.5443 20.4445 11.5555 18.4556 11.5555 16C11.5555 13.9333 12.9777 12.2111 14.8888 11.7111V14.0889C14.2221 14.4778 13.7777 15.1778 13.7777 16C13.7777 17.2222 14.7777 18.2222 15.9999 18.2222C17.2221 18.2222 18.2221 17.2222 18.2221 16C18.2221 15.1778 17.7777 14.4667 17.111 14.0889V4.8889H15.9999C9.86657 4.8889 4.88879 9.86668 4.88879 16C4.88879 22.1333 9.86657 27.1111 15.9999 27.1111C22.1332 27.1111 27.111 22.1333 27.111 16C27.111 12.9333 25.8666 10.1556 23.8555 8.14446Z" fill="#0D8479"/>
<g clip-path="url(#clip0)">
<circle cx="16" cy="16" r="15.5" stroke="#0D8479"/>
</g>
<defs>
<clipPath id="clip0">
<rect width="32" height="32" fill="white"/>
</clipPath>
</defs>
</svg>
