<svg width="32" height="32" viewBox="0 0 32 32" fill="none" xmlns="http://www.w3.org/2000/svg">
<path d="M25.389 8.84444L23.8223 7.27778L21.8334 9.27778L23.4001 10.8444L25.389 8.84444ZM17.1112 4.5H14.889L14.889 7.77778H17.1112L17.1112 4.5ZM24.889 17.7778H28.2223V15.5556H24.889V17.7778ZM12.6667 22.4333V27.7778L19.3334 27.7778V22.4333C21.3223 21.2778 22.6667 19.1333 22.6667 16.6667C22.6667 12.9889 19.6778 10 16.0001 10C12.3223 10 9.3334 12.9889 9.3334 16.6667C9.3334 19.1333 10.6778 21.2778 12.6667 22.4333ZM7.11118 17.7778V15.5556L3.77784 15.5556V17.7778L7.11118 17.7778ZM10.1778 9.26667L8.18896 7.26667L6.62229 8.83333L8.62229 10.8222L10.1778 9.26667Z" fill="#0D8479"/>
<g clip-path="url(#clip0)">
<circle cx="16" cy="16" r="15.5" stroke="#0D8479"/>
<g clip-path="url(#clip1)">
<circle cx="16" cy="16" r="15.5" stroke="#0D8479"/>
</g>
</g>
<defs>
<clipPath id="clip0">
<rect width="32" height="32" fill="white"/>
</clipPath>
<clipPath id="clip1">
<rect width="32" height="32" fill="white"/>
</clipPath>
</defs>
</svg>
