<svg width="32" height="32" viewBox="0 0 32 32" fill="none" xmlns="http://www.w3.org/2000/svg">
<path d="M16.3334 27.1111C21.8556 27.1111 26.3334 22.6333 26.3334 17.1111C20.8112 17.1111 16.3334 21.5889 16.3334 27.1111ZM9.22226 14.0555C9.22226 15.5889 10.4667 16.8333 12 16.8333C12.5889 16.8333 13.1223 16.6556 13.5778 16.3444L13.5556 16.5555C13.5556 18.0889 14.8 19.3333 16.3334 19.3333C17.8667 19.3333 19.1112 18.0889 19.1112 16.5555L19.0889 16.3444C19.5334 16.6556 20.0778 16.8333 20.6667 16.8333C22.2 16.8333 23.4445 15.5889 23.4445 14.0555C23.4445 12.9444 22.7889 12 21.8556 11.5555C22.7889 11.1111 23.4445 10.1667 23.4445 9.05555C23.4445 7.52222 22.2 6.27777 20.6667 6.27777C20.0778 6.27777 19.5445 6.45555 19.0889 6.76666L19.1112 6.55555C19.1112 5.02222 17.8667 3.77777 16.3334 3.77777C14.8 3.77777 13.5556 5.02222 13.5556 6.55555L13.5778 6.76666C13.1334 6.45555 12.5889 6.27777 12 6.27777C10.4667 6.27777 9.22226 7.52222 9.22226 9.05555C9.22226 10.1667 9.87782 11.1111 10.8112 11.5555C9.87782 12 9.22226 12.9444 9.22226 14.0555ZM16.3334 8.77777C17.8667 8.77777 19.1112 10.0222 19.1112 11.5555C19.1112 13.0889 17.8667 14.3333 16.3334 14.3333C14.8 14.3333 13.5556 13.0889 13.5556 11.5555C13.5556 10.0222 14.8 8.77777 16.3334 8.77777ZM6.33337 17.1111C6.33337 22.6333 10.8112 27.1111 16.3334 27.1111C16.3334 21.5889 11.8556 17.1111 6.33337 17.1111Z" fill="#0D8479"/>
<circle cx="16" cy="16" r="15.5" stroke="#0D8479"/>
</svg>
