<svg width="31" height="32" viewBox="0 0 31 32" fill="none" xmlns="http://www.w3.org/2000/svg">
<path d="M21.1265 6.72559H8.02252C7.12162 6.72559 6.38452 7.50206 6.38452 8.45108V23.9805L9.66052 20.5295H21.1265C22.0274 20.5295 22.7645 19.753 22.7645 18.804V8.45108C22.7645 7.50206 22.0274 6.72559 21.1265 6.72559Z" fill="#696969" fill-opacity="0.3"/>
<g clip-path="url(#clip0)">
<path d="M14.1649 15.1372H22.3549C22.918 15.1372 23.3787 15.6225 23.3787 16.2156V25.9215L21.3312 23.7647H14.1649C13.6018 23.7647 13.1412 23.2794 13.1412 22.6862V16.2156C13.1412 15.6225 13.6018 15.1372 14.1649 15.1372Z" fill="#696969" fill-opacity="0.5"/>
</g>
<path d="M29.8775 16C29.8775 24.5852 23.2769 31.5 15.1887 31.5C7.10057 31.5 0.5 24.5852 0.5 16C0.5 7.41475 7.10057 0.5 15.1887 0.5C23.2769 0.5 29.8775 7.41475 29.8775 16Z" stroke="#696969" stroke-opacity="0.5"/>
<defs>
<clipPath id="clip0">
<rect width="12.285" height="12.9412" fill="white" transform="matrix(-1 0 0 1 25.631 14.0588)"/>
</clipPath>
</defs>
</svg>
