<svg width="31" height="32" viewBox="0 0 31 32" fill="none" xmlns="http://www.w3.org/2000/svg">
<path d="M29.7128 16C29.7128 24.5879 23.1466 31.5 15.1064 31.5C7.06619 31.5 0.5 24.5879 0.5 16C0.5 7.41212 7.06619 0.5 15.1064 0.5C23.1466 0.5 29.7128 7.41212 29.7128 16Z" stroke="#696969" stroke-opacity="0.5"/>
<path d="M15.1064 6.83325C11.7657 6.83325 9.0481 9.71159 9.0481 13.2499C9.0481 18.0624 15.1064 25.1666 15.1064 25.1666C15.1064 25.1666 21.1647 18.0624 21.1647 13.2499C21.1647 9.71159 18.4471 6.83325 15.1064 6.83325ZM15.1064 8.66659C16.0584 8.66659 16.8373 9.49159 16.8373 10.4999C16.8373 11.5174 16.0584 12.3333 15.1064 12.3333C14.1544 12.3333 13.3754 11.5174 13.3754 10.4999C13.3754 9.49159 14.1544 8.66659 15.1064 8.66659ZM15.1064 17.8333C13.6611 17.8333 12.3888 17.0541 11.6445 15.8624C11.6618 14.6524 13.9553 13.9833 15.1064 13.9833C16.2575 13.9833 18.551 14.6524 18.5683 15.8624C17.824 17.0541 16.5517 17.8333 15.1064 17.8333Z" fill="#696969" fill-opacity="0.5"/>
</svg>
