<svg width="31" height="32" viewBox="0 0 31 32" fill="none" xmlns="http://www.w3.org/2000/svg">
<path d="M29.7128 16C29.7128 24.5879 23.1466 31.5 15.1064 31.5C7.06619 31.5 0.5 24.5879 0.5 16C0.5 7.41212 7.06619 0.5 15.1064 0.5C23.1466 0.5 29.7128 7.41212 29.7128 16Z" stroke="#0D8479"/>
<path d="M15.1064 6.83337C11.7657 6.83337 9.0481 9.71171 9.0481 13.25C9.0481 18.0625 15.1064 25.1667 15.1064 25.1667C15.1064 25.1667 21.1647 18.0625 21.1647 13.25C21.1647 9.71171 18.4471 6.83337 15.1064 6.83337ZM15.1064 8.66671C16.0584 8.66671 16.8373 9.49171 16.8373 10.5C16.8373 11.5175 16.0584 12.3334 15.1064 12.3334C14.1544 12.3334 13.3754 11.5175 13.3754 10.5C13.3754 9.49171 14.1544 8.66671 15.1064 8.66671ZM15.1064 17.8334C13.6611 17.8334 12.3888 17.0542 11.6445 15.8625C11.6618 14.6525 13.9553 13.9834 15.1064 13.9834C16.2575 13.9834 18.551 14.6525 18.5683 15.8625C17.824 17.0542 16.5517 17.8334 15.1064 17.8334Z" fill="#0D8479"/>
</svg>
